<?xml version="1.0" standalone="no"?>
<!DOCTYPE svg PUBLIC "-//W3C//DTD SVG 20010904//EN"
 "http://www.w3.org/TR/2001/REC-SVG-20010904/DTD/svg10.dtd">
<svg version="1.0" xmlns="http://www.w3.org/2000/svg"
 width="70.000000pt" height="70.000000pt" viewBox="0 0 70.000000 70.000000"
 preserveAspectRatio="xMidYMid meet">
<metadata>
Created by potrace 1.11, written by Peter Selinger 2001-2013
</metadata>
<g transform="translate(0.000000,70.000000) scale(0.100000,-0.100000)"
fill="#000000" stroke="none">
<path d="M0 350 l0 -350 350 0 350 0 0 350 0 350 -350 0 -350 0 0 -350z m420
140 c0 -15 -7 -20 -26 -20 -27 0 -27 0 -21 -66 6 -78 21 -102 31 -50 6 30 11
36 31 36 30 0 29 5 8 -92 -16 -75 -18 -78 -45 -78 -25 0 -29 5 -39 45 -13 51
-19 50 -34 -3 -9 -32 -15 -37 -40 -37 -27 0 -29 4 -42 60 -7 33 -15 70 -18 83
-5 21 -2 23 22 20 19 -2 29 -10 31 -23 2 -11 6 -27 9 -35 9 -23 21 25 22 88 1
49 0 52 -24 52 -18 0 -25 5 -25 20 0 18 7 20 80 20 73 0 80 -2 80 -20z"/>
</g>
</svg>
