<svg id="Calque_1" data-name="Calque 1" xmlns="http://www.w3.org/2000/svg" viewBox="0 0 60.01 49.45"><defs><style>.cls-1{fill:#fff;}</style></defs><g id="ruC1hi.tif"><path class="cls-1" d="M183,231.83a27.78,27.78,0,0,0,17.73-5.34c-5.18-1.27-9.63-3.16-11.49-8.78h4.87c-5.57-2.3-8.88-6.18-9.25-12.44l5.06,1.42c-5-4.77-6.39-10.15-3.32-16.72,6.88,7.87,15.24,12.31,25.37,13a37.84,37.84,0,0,1,.48-5.77,12.44,12.44,0,0,1,20.14-6.53,2.3,2.3,0,0,0,2.72.48c1.94-.81,3.93-1.51,6.09-2.33-.79,2.75-2.55,4.62-4.45,6.52l5.75-1.48.3.39c-1.44,1.49-2.81,3.07-4.37,4.42a4.1,4.1,0,0,0-1.6,3.44c-.09,15.79-10.93,30-26,33.82a36,36,0,0,1-25.65-2.67C184.59,232.82,183.8,232.3,183,231.83Z" transform="translate(-183 -187.68)"/></g></svg>