<svg id="Calque_1" data-name="Calque 1" xmlns="http://www.w3.org/2000/svg" viewBox="0 0 64.29 63.95"><defs><style>.cls-1{fill:#020202;}.cls-2{fill:#fff;}</style></defs><path class="cls-1" d="M244.63,201.29h.52c-.27-5.72-.21-11.48-.9-17.14-.92-7.51-6-12.71-13.4-14.22a38.52,38.52,0,0,0-7.88-.72c-8.72,0-17.45-.08-26.14.43-9,.52-15.57,7.57-15.78,16.7q-.36,14.88,0,29.76a16.91,16.91,0,0,0,16.7,16.79c9.09.32,18.2.28,27.3.25a21.41,21.41,0,0,0,11-2.56c5.54-3.24,8.19-8.33,8.53-14.54C244.84,211.13,244.63,206.21,244.63,201.29Z" transform="translate(-180.87 -169.2)"/><path class="cls-1" d="M244.63,201.29c0,4.92.21,9.84-.06,14.74-.34,6.21-3,11.3-8.53,14.54a21.41,21.41,0,0,1-11,2.56c-9.1,0-18.21.07-27.3-.25a16.91,16.91,0,0,1-16.7-16.79q-.37-14.86,0-29.76c.21-9.13,6.78-16.18,15.78-16.7,8.69-.51,17.42-.4,26.14-.43a38.52,38.52,0,0,1,7.88.72c7.39,1.51,12.48,6.71,13.4,14.22.69,5.66.63,11.42.9,17.14Zm-5.78,0h0c0-4.77.08-9.54,0-14.3a12.52,12.52,0,0,0-2.38-7.29c-2.53-3.42-6.18-4.55-10.13-4.6-9-.13-18-.19-27,0-7.59.17-12.32,4.55-12.47,11.62-.21,9.62-.19,19.25,0,28.88.12,6.51,4.48,11.23,10.9,11.42,10.05.31,20.12.19,30.17,0a10.59,10.59,0,0,0,8.29-4.11,12.25,12.25,0,0,0,2.62-7.49C239,210.76,238.85,206,238.85,201.32Z" transform="translate(-180.87 -169.2)"/><path class="cls-2" d="M238.85,201.32c0,4.71.1,9.44,0,14.15a12.25,12.25,0,0,1-2.62,7.49,10.59,10.59,0,0,1-8.29,4.11c-10.05.17-20.12.29-30.17,0-6.42-.19-10.78-4.91-10.9-11.42-.19-9.63-.21-19.26,0-28.88.15-7.07,4.88-11.45,12.47-11.62,9-.19,18-.13,27,0,3.95.05,7.6,1.18,10.13,4.6a12.52,12.52,0,0,1,2.38,7.29c.12,4.76,0,9.53,0,14.3Zm-26.08,16.31a16.48,16.48,0,1,0-16.44-16.57A16.41,16.41,0,0,0,212.77,217.63Zm17.15-29.78a3.81,3.81,0,1,0,.05-7.61,3.81,3.81,0,1,0-.05,7.61Z" transform="translate(-180.87 -169.2)"/><path class="cls-1" d="M212.77,217.63a16.48,16.48,0,1,1,16.52-16.35A16.39,16.39,0,0,1,212.77,217.63Zm.1-5.79a10.68,10.68,0,1,0-10.76-10.68A10.65,10.65,0,0,0,212.87,211.84Z" transform="translate(-180.87 -169.2)"/><path class="cls-1" d="M229.92,187.85a3.81,3.81,0,1,1,.05-7.61,3.81,3.81,0,1,1-.05,7.61Z" transform="translate(-180.87 -169.2)"/><path class="cls-2" d="M212.87,211.84a10.68,10.68,0,1,1,10.64-10.64A10.65,10.65,0,0,1,212.87,211.84Z" transform="translate(-180.87 -169.2)"/></svg>