<svg id="Calque_1" data-name="Calque 1" xmlns="http://www.w3.org/2000/svg" viewBox="0 0 63.96 63.91"><defs><style>.cls-1{fill:#fff;}</style></defs><path class="cls-1" d="M211.9,244.11a32,32,0,1,1,33-30.12A31.89,31.89,0,0,1,211.9,244.11Zm-3.42-47-.06-.44c-4.75.69-9.52,1.3-14.25,2.12a5.18,5.18,0,0,0-2.83,1.77,2.51,2.51,0,0,0,.23,3.24,3.14,3.14,0,0,0,3.59.9,56.09,56.09,0,0,1,25.48-.36,36.46,36.46,0,0,1,11.08,4.05,3,3,0,0,0,4.27-.92c.92-1.54.45-3.18-1.3-4.25a24.46,24.46,0,0,0-2.83-1.47C224.44,198.39,216.57,197.2,208.48,197.15Zm-.84,11-.07-.43c-4.14.7-8.29,1.31-12.4,2.13a2.43,2.43,0,0,0-2,3.21c.37,1.33,1.67,1.88,3.33,1.59a82.35,82.35,0,0,1,8.54-1.33,39.33,39.33,0,0,1,22.71,4.9,4.07,4.07,0,0,0,.82.38,2.33,2.33,0,0,0,3-1.08,2.24,2.24,0,0,0-.6-3.12,11.45,11.45,0,0,0-1.67-1.05A45.28,45.28,0,0,0,207.64,208.15Zm.31,10.13c-3.87.54-7.74,1-11.58,1.64a2.06,2.06,0,0,0-2,2.43c.25,1.16,1.24,1.69,2.74,1.46l1.05-.2a44.67,44.67,0,0,1,16.34-.47,30.15,30.15,0,0,1,10.09,3.66,2,2,0,0,0,3-.42c.7-.92.44-2-.74-2.87a15,15,0,0,0-2.38-1.34A41.77,41.77,0,0,0,208,218.28Z" transform="translate(-181.01 -180.22)"/><path d="M208.48,197.15c8.09,0,16,1.24,23.38,4.64a24.46,24.46,0,0,1,2.83,1.47c1.75,1.07,2.22,2.71,1.3,4.25a3,3,0,0,1-4.27.92,36.46,36.46,0,0,0-11.08-4.05,56.09,56.09,0,0,0-25.48.36,3.14,3.14,0,0,1-3.59-.9,2.51,2.51,0,0,1-.23-3.24,5.18,5.18,0,0,1,2.83-1.77c4.73-.82,9.5-1.43,14.25-2.12Z" transform="translate(-181.01 -180.22)"/><path d="M207.64,208.15a45.28,45.28,0,0,1,21.67,5.2A11.45,11.45,0,0,1,231,214.4a2.24,2.24,0,0,1,.6,3.12,2.33,2.33,0,0,1-3,1.08,4.07,4.07,0,0,1-.82-.38,39.33,39.33,0,0,0-22.71-4.9,82.35,82.35,0,0,0-8.54,1.33c-1.66.29-3-.26-3.33-1.59a2.43,2.43,0,0,1,2-3.21c4.11-.82,8.26-1.43,12.4-2.13Z" transform="translate(-181.01 -180.22)"/><path d="M208,218.28a41.77,41.77,0,0,1,16.53,3.89,15,15,0,0,1,2.38,1.34c1.18.83,1.44,2,.74,2.87a2,2,0,0,1-3,.42,30.15,30.15,0,0,0-10.09-3.66,44.67,44.67,0,0,0-16.34.47l-1.05.2c-1.5.23-2.49-.3-2.74-1.46a2.06,2.06,0,0,1,2-2.43C200.21,219.31,204.08,218.82,208,218.28Z" transform="translate(-181.01 -180.22)"/></svg>