<svg id="Calque_1" data-name="Calque 1" xmlns="http://www.w3.org/2000/svg" viewBox="0 0 63.02 77.31"><defs><style>.cls-1{fill:#fff;}</style></defs><path class="cls-1" d="M242.13,197.6c-3.73-5.54-12.4-7.84-22-4.39a16.15,16.15,0,0,1-11.71.27c-12.17-4.45-23,1.36-25.77,14.07-3,13.67,1,25.85,9.31,36.77,5.32,7,8.28,7.46,16.74,5.12a23.84,23.84,0,0,1,12.18-.13c8.88,2.44,12.17,1.88,17.45-5.47a90.08,90.08,0,0,0,5.46-9.12c1.49-2.72,1.23-4.72-1.75-6.82-5-3.54-8.21-8.87-6.72-15.05C236.57,207.81,239.57,203.19,242.13,197.6ZM214,190.26c9.74-1,15.69-8.29,14.09-16.86C219.75,173.14,212.92,181.12,214,190.26Z" transform="translate(-181.69 -173.39)"/><path class="cls-1" d="M242.13,197.6c-2.56,5.59-5.56,10.21-6.78,15.25-1.49,6.18,1.7,11.51,6.72,15.05,3,2.1,3.24,4.1,1.75,6.82a90.08,90.08,0,0,1-5.46,9.12c-5.28,7.35-8.57,7.91-17.45,5.47a23.84,23.84,0,0,0-12.18.13c-8.46,2.34-11.42,1.87-16.74-5.12-8.31-10.92-12.29-23.1-9.31-36.77,2.77-12.71,13.6-18.52,25.77-14.07a16.15,16.15,0,0,0,11.71-.27C229.73,189.76,238.4,192.06,242.13,197.6Z" transform="translate(-181.69 -173.39)"/><path class="cls-1" d="M214,190.26c-1.12-9.14,5.71-17.12,14.09-16.86C229.73,182,223.78,189.22,214,190.26Z" transform="translate(-181.69 -173.39)"/></svg>