<svg id="Calque_1" data-name="Calque 1" xmlns="http://www.w3.org/2000/svg" viewBox="0 0 35.31 67.96"><defs><style>.cls-1{fill:#fff;}</style></defs><g id="F23CgM.tif"><path class="cls-1" d="M197.34,190.18h10.38c0-.57,0-1,0-1.5a115,115,0,0,1,.47-11.61,13.58,13.58,0,0,1,13.32-11.76c3.32-.11,6.66.15,10,.22.88,0,1.18.35,1.16,1.26-.06,2.82,0,5.64,0,8.46v1.21c-1.84,0-3.56,0-5.27,0a19.49,19.49,0,0,0-3.06.15c-2.58.46-3.83,1.64-4,4.22-.19,3,0,6.13,0,9.33h11.93l-1.54,12H220.22v31H207.76v-31H197.34Z" transform="translate(-197.34 -165.28)"/></g></svg>